g Cone
v 0.08794019 0 0.0638923
v 0.4755282 0.5 0.1545085
v 0.1033799 0 0.03359019
v 0.4045086 0.5 0.2938926
v 0.06389227 0 0.08794021
v 0.2938926 0.5 0.4045085
v 0.03359013 0 0.1033799
v 0.1545084 0.5 0.4755283
v 1.511702E-08 0 0.1087001
v 6.953546E-08 0.5 0.5
v -0.03359016 0 0.1033799
v -0.1545085 0.5 0.4755282
v -0.0638923 0 0.0879402
v -0.2938927 0.5 0.4045084
v -0.08794016 0 0.06389233
v -0.4045084 0.5 0.2938927
v -0.1033799 0 0.03359019
v 0.5 0.5 -5.364221E-08
v 0.1087 0 1.585199E-08
v 0.4755282 0.5 -0.1545086
v 0.1033799 0 -0.03359015
v 0.4045085 0.5 -0.2938927
v 0.08794018 0 -0.06389226
v 0.2938927 0.5 -0.4045085
v 0.06389229 0 -0.08794015
v 0.1545085 0.5 -0.4755282
v 0.03359015 0 -0.1033798
v -5.36422E-08 0.5 -0.5
v -1.166182E-08 0 -0.1087
v -0.1545086 0.5 -0.4755283
v -0.03359017 0 -0.1033799
v -0.2938927 0.5 -0.4045084
v -0.06389229 0 -0.08794014
v -0.4045086 0.5 -0.2938926
v -0.08794019 0 -0.06389224
v -0.4755283 0.5 -0.1545085
v -0.1033799 0 -0.03359012
v -0.5 0.5 5.36422E-08
v -0.1087 0 3.917563E-08
v -0.1087 0 3.917563E-08
v -0.4755283 0.5 0.1545085
v -0.5 0.5 5.36422E-08
vt 0.3997114 0.001879454
vt 0.4487259 1.001928
vt 0.4497114 0.001928806
vt 0.398726 1.001879
vt 0.3497115 0.001830339
vt 0.348726 1.00183
vt 0.2997115 0.001780987
vt 0.2987261 1.00178
vt 0.2497115 0.001731634
vt 0.248726 1.001731
vt 0.1997115 0.00168252
vt 0.198726 1.001682
vt 0.1497115 0.001633167
vt 0.1487261 1.001633
vt 0.0997116 0.001583815
vt 0.09872612 1.001583
vt 0.04971164 0.0015347
vt 0.498726 1.001977
vt 0.4997114 0.00197804
vt 0.5487259 1.002027
vt 0.5497113 0.002027273
vt 0.5987259 1.002076
vt 0.5997113 0.002076626
vt 0.6487259 1.002125
vt 0.6497114 0.002125859
vt 0.6987259 1.002175
vt 0.6997113 0.002175093
vt 0.7487258 1.002224
vt 0.7497113 0.002224445
vt 0.7987258 1.002273
vt 0.7997112 0.002273679
vt 0.8487258 1.002322
vt 0.8497112 0.002322912
vt 0.8987257 1.002372
vt 0.8997112 0.002372265
vt 0.9487258 1.002421
vt 0.9497112 0.002421498
vt 0.9987257 1.00247
vt 0.9997112 0.002470732
vt -0.0002883673 0.001485348
vt 0.04872617 1.001534
vt -0.001273837 1.001485
vn 0.6609747 -0.615772 0.4288792
vn 0.7354819 -0.6157719 0.2826506
vn 0.7611552 -0.6157719 0.2036361
vn 0.6121408 -0.6157719 0.4960932
vn 0.4960932 -0.6157719 0.6121409
vn 0.4288794 -0.6157719 0.6609746
vn 0.2826507 -0.6157719 0.7354819
vn 0.203636 -0.6157719 0.7611552
vn 0.04154044 -0.615772 0.7868286
vn -0.04154045 -0.615772 0.7868286
vn -0.2036361 -0.6157719 0.7611552
vn -0.2826508 -0.6157719 0.7354819
vn -0.4288794 -0.6157719 0.6609746
vn -0.4960932 -0.6157719 0.6121408
vn -0.6121408 -0.6157719 0.4960933
vn -0.6609745 -0.6157719 0.4288795
vn -0.7354817 -0.615772 0.2826509
vn 0.7868286 -0.615772 0.0415406
vn 0.7868286 -0.615772 -0.04154049
vn 0.7611551 -0.6157719 -0.2036361
vn 0.7354816 -0.615772 -0.2826508
vn 0.6609745 -0.6157721 -0.4288794
vn 0.6121407 -0.615772 -0.4960932
vn 0.4960931 -0.615772 -0.6121408
vn 0.4288792 -0.6157721 -0.6609747
vn 0.2826506 -0.615772 -0.7354818
vn 0.2036361 -0.6157719 -0.7611551
vn 0.04154062 -0.615772 -0.7868285
vn -0.04154032 -0.615772 -0.7868285
vn -0.2036361 -0.6157721 -0.7611551
vn -0.2826509 -0.615772 -0.7354816
vn -0.4288795 -0.615772 -0.6609744
vn -0.4960933 -0.615772 -0.6121407
vn -0.6121408 -0.615772 -0.4960931
vn -0.6609746 -0.6157721 -0.4288792
vn -0.7354818 -0.615772 -0.2826506
vn -0.7611551 -0.6157719 -0.2036359
vn -0.7868285 -0.615772 -0.04154044
vn -0.7868285 -0.615772 0.04154043
vn -0.7868285 -0.615772 0.04154043
vn -0.7611551 -0.6157719 0.2036361
vn -0.7868285 -0.615772 -0.04154044
g Cone_0
f 3/3/3 2/2/2 1/1/1
f 1/1/1 2/2/2 4/4/4
f 1/1/1 4/4/4 5/5/5
f 5/5/5 4/4/4 6/6/6
f 5/5/5 6/6/6 7/7/7
f 7/7/7 6/6/6 8/8/8
f 7/7/7 8/8/8 9/9/9
f 9/9/9 8/8/8 10/10/10
f 9/9/9 10/10/10 11/11/11
f 11/11/11 10/10/10 12/12/12
f 11/11/11 12/12/12 13/13/13
f 13/13/13 12/12/12 14/14/14
f 13/13/13 14/14/14 15/15/15
f 15/15/15 14/14/14 16/16/16
f 15/15/15 16/16/16 17/17/17
f 3/3/3 18/18/18 2/2/2
f 19/19/19 18/18/18 3/3/3
f 19/19/19 20/20/20 18/18/18
f 21/21/21 20/20/20 19/19/19
f 21/21/21 22/22/22 20/20/20
f 23/23/23 22/22/22 21/21/21
f 23/23/23 24/24/24 22/22/22
f 25/25/25 24/24/24 23/23/23
f 25/25/25 26/26/26 24/24/24
f 27/27/27 26/26/26 25/25/25
f 27/27/27 28/28/28 26/26/26
f 29/29/29 28/28/28 27/27/27
f 29/29/29 30/30/30 28/28/28
f 31/31/31 30/30/30 29/29/29
f 31/31/31 32/32/32 30/30/30
f 33/33/33 32/32/32 31/31/31
f 33/33/33 34/34/34 32/32/32
f 35/35/35 34/34/34 33/33/33
f 35/35/35 36/36/36 34/34/34
f 37/37/37 36/36/36 35/35/35
f 37/37/37 38/38/38 36/36/36
f 39/39/39 38/38/38 37/37/37
f 17/17/17 41/41/41 40/40/40
f 40/40/40 41/41/41 42/42/42
f 17/17/17 16/16/16 41/41/41
