g Geoset_010.1
v 0.004950488 8.742279E-09 -0.5
v 0.004950488 -8.742279E-09 0.4900986
v 0.004950488 1 -0.4999996
v 0.004950488 1 0.490099
v 0.5 1 -0.00495027
v -0.490099 1 -0.00495027
v 0.5 -1.302701E-16 -0.004950702
v -0.490099 -1.302701E-16 -0.004950702
v -0.004950427 -3.032799E-08 0.5
v -0.004950576 -1.284343E-08 -0.4900985
v -0.004950427 1 0.4999995
v -0.004950576 1 -0.490099
v -0.5 1 0.004950252
v 0.490099 1 0.004950252
v -0.5 -1.302701E-16 0.004950724
v 0.490099 -1.302701E-16 0.004950724
vt 1 0
vt 0 0
vt 1 1
vt 0 1
vt 0 1
vt 1 1
vt 0 0
vt 1 0
vt 1 0
vt 0 0
vt 1 1
vt 0 1
vt 0 1
vt 1 1
vt 0 0
vt 1 0
vn 1 0 0
vn 1 0 0
vn 1 0 0
vn 1 0 0
vn 0 0 -1
vn 0 0 -1
vn 0 0 -1
vn 0 0 -1
vn -1 0 0
vn -1 0 0
vn -1 0 0
vn -1 0 0
vn 0 0 1
vn 0 0 1
vn 0 0 1
vn 0 0 1
g Geoset_010.1_0
f 3/3/3 2/2/2 1/1/1
f 2/2/2 3/3/3 4/4/4
f 7/7/7 6/6/6 5/5/5
f 6/6/6 7/7/7 8/8/8
f 11/11/11 10/10/10 9/9/9
f 10/10/10 11/11/11 12/12/12
f 15/15/15 14/14/14 13/13/13
f 14/14/14 15/15/15 16/16/16
