g Plane004
v -0.9746 0.3993182 -1.212036
v -0.5178478 0.3993182 -1.416808
v -0.5178478 0.5503423 -1.416808
v -0.9746 0.5503423 -1.212036
v -0.02282169 0.5503423 -1.49099
v -0.02282169 0.3993182 -1.49099
v 0.4738912 0.5503423 -1.429101
v 0.4738912 0.3993182 -1.429101
v 0.9355788 0.5503423 -1.235714
v 0.9355788 0.3993182 -1.235714
v -0.5178478 0.7013663 -1.416808
v -0.9746 0.7013663 -1.212036
v -0.02282169 0.7013663 -1.49099
v 0.4738912 0.7013663 -1.429101
v 0.9355788 0.7013663 -1.235714
v -0.5178478 0.8523904 -1.416808
v -0.9746 0.8523904 -1.212036
v -0.02282169 0.8523904 -1.49099
v 0.4738912 0.8523904 -1.429101
v 0.9355788 0.8523904 -1.235714
v -0.5178478 1.003415 -1.416808
v -0.9746 1.003415 -1.212036
v -0.02282169 1.003415 -1.49099
v 0.4738912 1.003415 -1.429101
v 0.9355788 1.003415 -1.235714
v -0.5178478 1.154439 -1.416808
v -0.9746 1.154439 -1.212036
v -0.02282169 1.154439 -1.49099
v 0.4738912 1.154439 -1.429101
v 0.9355788 1.154439 -1.235714
v -0.5178478 1.305463 -1.416808
v -0.9746 1.305463 -1.212036
v -0.02282169 1.305463 -1.49099
v 0.4738912 1.305463 -1.429101
v 0.9355788 1.305463 -1.235714
v -0.5178478 1.456487 -1.416808
v -0.9746 1.456487 -1.212036
v -0.02282169 1.456487 -1.49099
v 0.4738912 1.456487 -1.429101
v 0.9355788 1.456487 -1.235714
v -0.5178478 1.607511 -1.416808
v -0.9746 1.607511 -1.212036
v -0.02282169 1.607511 -1.49099
v 0.4738912 1.607511 -1.429101
v 0.9355788 1.607511 -1.235714
v -0.5178478 1.758535 -1.416808
v -0.9746 1.758535 -1.212036
v -0.02282169 1.758535 -1.49099
v 0.4738912 1.758535 -1.429101
v 0.9355788 1.758535 -1.235714
v -0.5178478 1.909559 -1.416808
v -0.9746 1.909559 -1.212036
v -0.02282169 1.909559 -1.49099
v 0.4738912 1.909559 -1.429101
v 0.9355788 1.909559 -1.235714
v -0.5095968 2.056715 -1.388656
v -0.9590716 2.056715 -1.187147
v -0.02245808 2.056715 -1.461656
v 0.4663406 2.056715 -1.400753
v 0.9206721 2.056715 -1.210448
v -0.4861056 2.181371 -1.308504
v -0.9148604 2.181371 -1.116284
v -0.02142284 2.181371 -1.37814
v 0.4448432 2.181371 -1.320044
v 0.878231 2.181371 -1.138512
v -0.4509654 2.264471 -1.188608
v -0.848726 2.264471 -1.010283
v -0.01987426 2.264471 -1.253209
v 0.4126859 2.264471 -1.199314
v 0.8147443 2.264471 -1.030904
v -0.4095492 2.293306 -1.047297
v -0.7707798 2.293306 -0.8853502
v -0.01804907 2.293306 -1.105966
v 0.3747851 2.293306 -1.05702
v 0.7399189 2.293306 -0.904077
v -0.368189 2.263471 -0.9061787
v -0.692939 2.263471 -0.7605863
v -0.01622635 2.263471 -0.9589224
v 0.3369357 2.263471 -0.9149194
v 0.6651949 2.263471 -0.7774218
v -0.3332086 2.179524 -0.7868268
v -0.6271051 2.179524 -0.6550667
v -0.01468477 2.179524 -0.8345596
v 0.3049244 2.179524 -0.7947372
v 0.6019966 2.179524 -0.6703029
v -0.309956 2.054303 -0.7074903
v -0.5833433 2.054303 -0.5849249
v -0.01366003 2.054303 -0.7518921
v 0.2836456 2.054303 -0.7148487
v 0.559987 2.054303 -0.5990979
v -0.3019866 1.906951 -0.6802987
v -0.5683446 1.906951 -0.5608848
v -0.01330882 1.906951 -0.723559
v 0.2763525 1.906951 -0.6874679
v 0.5455887 1.906951 -0.5746934
v -0.3105186 1.759998 -0.7094097
v -0.5844021 1.759998 -0.5866218
v -0.01368482 1.759998 -0.7538921
v 0.2841604 1.759998 -0.7167814
v 0.5610033 1.759998 -0.6008206
v -0.3271154 1.62098 -0.7660372
v -0.6156376 1.62098 -0.6366864
v -0.01441624 1.62098 -0.8128971
v 0.2993484 1.62098 -0.7738029
v 0.5909882 1.62098 -0.6516441
vt 0 0
vt 0.262241 0
vt 0.262241 0.05
vt 0 0.05
vt 0.5494305 0.07448211
vt 0.5494305 0
vt 0.7756478 0.04265537
vt 0.7756478 0
vt 1 0.05
vt 1 0
vt 0.262241 0.1048964
vt 0 0.1
vt 0.5494305 0.1171375
vt 0.7756478 0.06327684
vt 1 0.1
vt 0.262241 0.1524482
vt 0 0.15
vt 0.5494305 0.1475518
vt 0.7756478 0.1279661
vt 1 0.15
vt 0.262241 0.2073446
vt 0 0.2
vt 0.5494305 0.2122411
vt 0.7756478 0.1853107
vt 1 0.2
vt 0.262241 0.2646893
vt 0 0.25
vt 0.5494305 0.2622411
vt 0.7756478 0.2010358
vt 1 0.25
vt 0.262241 0.3146893
vt 0 0.3
vt 0.5494305 0.2975518
vt 0.7756478 0.2510358
vt 1 0.3
vt 0.262241 0.3597929
vt 0 0.35
vt 0.5494305 0.35
vt 0.7756478 0.2838984
vt 1 0.35
vt 0.262241 0.4
vt 0 0.4
vt 0.5494305 0.4
vt 0.7756478 0.353484
vt 1 0.4
vt 0.262241 0.4328626
vt 0 0.45
vt 0.5494305 0.45
vt 0.7756478 0.4132769
vt 1 0.45
vt 0.262241 0.4902072
vt 0 0.5000001
vt 0.5494305 0.5000001
vt 0.7756478 0.4657251
vt 1 0.5000001
vt 0.262241 0.5500001
vt 0 0.5500001
vt 0.5494305 0.5304144
vt 0.7756478 0.5279662
vt 1 0.5500001
vt 0.262241 0.5902072
vt 0 0.6000001
vt 0.5494305 0.6000001
vt 0.7756478 0.6000001
vt 1 0.6000001
vt 0.262241 0.6328626
vt 0 0.6500001
vt 0.5494305 0.6500001
vt 0.7756478 0.6500001
vt 1 0.6500001
vt 0.262241 0.7000001
vt 0 0.7000001
vt 0.5494305 0.6730698
vt 0.7756478 0.687759
vt 1 0.7000001
vt 0.262241 0.7304145
vt 0 0.7500001
vt 0.5494305 0.7206216
vt 0.7756478 0.7597929
vt 1 0.7500001
vt 0.262241 0.8000001
vt 0 0.8000001
vt 0.5494305 0.7706216
vt 0.7756478 0.7853109
vt 1 0.8000001
vt 0.262241 0.8279663
vt 0 0.8500001
vt 0.5494305 0.8206216
vt 0.7756478 0.8279662
vt 1 0.8500001
vt 0.262241 0.8828627
vt 0 0.9000002
vt 0.5494305 0.8706216
vt 0.7756478 0.9000002
vt 1 0.9000002
vt 0.262241 0.9426556
vt 0 0.9500002
vt 0.5494305 0.9500002
vt 0.7756478 0.9500002
vt 1 0.9500002
vt 0.262241 1
vt 0 1
vt 0.5494305 1
vt 0.7756478 1
vt 1 1
vn -0.4090903 0 -0.9124938
vn -0.2812563 0 -0.9596327
vn -0.2812563 0 -0.9596327
vn -0.4090903 0 -0.9124938
vn -0.01239501 0 -0.9999232
vn -0.01239501 0 -0.9999232
vn 0.2573823 0 -0.9663096
vn 0.2573823 0 -0.9663096
vn 0.3863455 0 -0.9223542
vn 0.3863455 0 -0.9223542
vn -0.2812563 0 -0.9596327
vn -0.4090903 0 -0.9124938
vn -0.012395 0 -0.9999232
vn 0.2573822 0 -0.9663096
vn 0.3863454 0 -0.9223542
vn -0.2812563 0 -0.9596327
vn -0.4090903 0 -0.9124938
vn -0.012395 0 -0.9999232
vn 0.2573822 0 -0.9663096
vn 0.3863454 0 -0.9223542
vn -0.2812563 0 -0.9596327
vn -0.4090903 0 -0.9124938
vn -0.012395 0 -0.9999232
vn 0.2573822 0 -0.9663096
vn 0.3863454 0 -0.9223542
vn -0.2812563 0 -0.9596327
vn -0.4090903 0 -0.9124938
vn -0.012395 0 -0.9999232
vn 0.2573822 0 -0.9663096
vn 0.3863454 0 -0.9223542
vn -0.2812563 0 -0.9596327
vn -0.4090903 0 -0.9124938
vn -0.01239499 0 -0.9999232
vn 0.2573823 0 -0.9663096
vn 0.3863454 0 -0.9223542
vn -0.2812563 0 -0.9596327
vn -0.4090903 0 -0.9124938
vn -0.01239499 0 -0.9999232
vn 0.2573823 0 -0.9663096
vn 0.3863454 0 -0.9223542
vn -0.2812563 0 -0.9596327
vn -0.4090903 0 -0.9124938
vn -0.01239499 0 -0.9999232
vn 0.2573823 0 -0.9663096
vn 0.3863454 0 -0.9223542
vn -0.2812563 0 -0.9596327
vn -0.4090903 0 -0.9124938
vn -0.01239499 0 -0.9999232
vn 0.2573823 0 -0.9663096
vn 0.3863454 0 -0.9223542
vn -0.2799188 0.097408 -0.9550691
vn -0.4071805 0.09651235 -0.9082342
vn -0.01233607 0.09740787 -0.9951681
vn 0.2561584 0.09740783 -0.9617144
vn 0.3845419 0.09651221 -0.9180484
vn -0.2604345 0.3776007 -0.8885897
vn -0.3793047 0.3745897 -0.8460558
vn -0.01147744 0.3776006 -0.9258974
vn 0.238328 0.3776006 -0.8947724
vn 0.3582158 0.3745896 -0.8551981
vn -0.2008758 0.6999327 -0.685378
vn -0.2935072 0.6965962 -0.6546809
vn -0.008852676 0.6999328 -0.7141539
vn 0.1838246 0.6999328 -0.6901467
vn 0.2771887 0.6965963 -0.6617553
vn -0.1109984 0.9188307 -0.378721
vn -0.1627225 0.9174867 -0.3629597
vn -0.004891741 0.9188307 -0.3946217
vn 0.1015764 0.9188307 -0.3813559
vn 0.1536753 0.9174867 -0.3668817
vn -0.003816877 0.999908 -0.01302297
vn -0.005603711 0.9999062 -0.01249932
vn -0.0001682109 0.999908 -0.01356978
vn 0.003492881 0.999908 -0.0131136
vn 0.005292113 0.9999062 -0.0126343
vn 0.1046247 0.9282367 0.356974
vn 0.1534037 0.92703 0.3421736
vn 0.00461087 0.9282366 0.3719617
vn -0.09574369 0.9282366 0.3594578
vn -0.1448746 0.92703 0.345871
vn 0.197474 0.7120652 0.6737709
vn 0.2885829 0.708784 0.6436965
vn 0.008702827 0.7120652 0.7020594
vn -0.1807115 0.7120651 0.678459
vn -0.2725379 0.708784 0.6506523
vn 0.2597838 0.3832265 0.8863688
vn 0.378372 0.3801858 0.8439748
vn 0.0114489 0.3832266 0.9235834
vn -0.2377322 0.3832266 0.8925362
vn -0.3573348 0.3801857 0.8530948
vn 0.2812498 -0.006913859 0.9596097
vn 0.4090809 -0.006849694 0.9124724
vn 0.0123949 -0.006913797 0.9998993
vn -0.257376 -0.006913778 0.9662867
vn -0.3863361 -0.006849627 0.9223326
vn 0.2682693 -0.3003645 0.9153212
vn 0.3905262 -0.2978249 0.8710853
vn 0.0118228 -0.3003645 0.9537512
vn -0.2454974 -0.3003646 0.9216899
vn -0.368813 -0.297825 0.8804982
vn 0.2588981 -0.3907293 0.8833472
vn 0.3771024 -0.3876497 0.8411429
vn 0.01140978 -0.3907295 0.9204348
vn -0.2369217 -0.3907295 0.8894934
vn -0.3561356 -0.3876499 0.8502323
g Plane004_0
f 3/3/3 2/2/2 1/1/1
f 4/4/4 3/3/3 1/1/1
f 3/3/3 5/5/5 2/2/2
f 5/5/5 6/6/6 2/2/2
f 5/5/5 7/7/7 6/6/6
f 7/7/7 8/8/8 6/6/6
f 7/7/7 9/9/9 8/8/8
f 9/9/9 10/10/10 8/8/8
f 11/11/11 3/3/3 4/4/4
f 12/12/12 11/11/11 4/4/4
f 13/13/13 5/5/5 3/3/3
f 11/11/11 13/13/13 3/3/3
f 14/14/14 7/7/7 5/5/5
f 13/13/13 14/14/14 5/5/5
f 15/15/15 9/9/9 7/7/7
f 14/14/14 15/15/15 7/7/7
f 16/16/16 11/11/11 12/12/12
f 17/17/17 16/16/16 12/12/12
f 18/18/18 13/13/13 11/11/11
f 16/16/16 18/18/18 11/11/11
f 19/19/19 14/14/14 13/13/13
f 18/18/18 19/19/19 13/13/13
f 20/20/20 15/15/15 14/14/14
f 19/19/19 20/20/20 14/14/14
f 21/21/21 16/16/16 17/17/17
f 22/22/22 21/21/21 17/17/17
f 23/23/23 18/18/18 16/16/16
f 21/21/21 23/23/23 16/16/16
f 24/24/24 19/19/19 18/18/18
f 23/23/23 24/24/24 18/18/18
f 25/25/25 20/20/20 19/19/19
f 24/24/24 25/25/25 19/19/19
f 26/26/26 21/21/21 22/22/22
f 27/27/27 26/26/26 22/22/22
f 28/28/28 23/23/23 21/21/21
f 26/26/26 28/28/28 21/21/21
f 29/29/29 24/24/24 23/23/23
f 28/28/28 29/29/29 23/23/23
f 30/30/30 25/25/25 24/24/24
f 29/29/29 30/30/30 24/24/24
f 31/31/31 26/26/26 27/27/27
f 32/32/32 31/31/31 27/27/27
f 33/33/33 28/28/28 26/26/26
f 31/31/31 33/33/33 26/26/26
f 34/34/34 29/29/29 28/28/28
f 33/33/33 34/34/34 28/28/28
f 35/35/35 30/30/30 29/29/29
f 34/34/34 35/35/35 29/29/29
f 36/36/36 31/31/31 32/32/32
f 37/37/37 36/36/36 32/32/32
f 38/38/38 33/33/33 31/31/31
f 36/36/36 38/38/38 31/31/31
f 39/39/39 34/34/34 33/33/33
f 38/38/38 39/39/39 33/33/33
f 40/40/40 35/35/35 34/34/34
f 39/39/39 40/40/40 34/34/34
f 41/41/41 36/36/36 37/37/37
f 42/42/42 41/41/41 37/37/37
f 43/43/43 38/38/38 36/36/36
f 41/41/41 43/43/43 36/36/36
f 44/44/44 39/39/39 38/38/38
f 43/43/43 44/44/44 38/38/38
f 45/45/45 40/40/40 39/39/39
f 44/44/44 45/45/45 39/39/39
f 46/46/46 41/41/41 42/42/42
f 47/47/47 46/46/46 42/42/42
f 48/48/48 43/43/43 41/41/41
f 46/46/46 48/48/48 41/41/41
f 49/49/49 44/44/44 43/43/43
f 48/48/48 49/49/49 43/43/43
f 50/50/50 45/45/45 44/44/44
f 49/49/49 50/50/50 44/44/44
f 51/51/51 46/46/46 47/47/47
f 52/52/52 51/51/51 47/47/47
f 53/53/53 48/48/48 46/46/46
f 51/51/51 53/53/53 46/46/46
f 54/54/54 49/49/49 48/48/48
f 53/53/53 54/54/54 48/48/48
f 55/55/55 50/50/50 49/49/49
f 54/54/54 55/55/55 49/49/49
f 56/56/56 51/51/51 52/52/52
f 57/57/57 56/56/56 52/52/52
f 58/58/58 53/53/53 51/51/51
f 56/56/56 58/58/58 51/51/51
f 59/59/59 54/54/54 53/53/53
f 58/58/58 59/59/59 53/53/53
f 60/60/60 55/55/55 54/54/54
f 59/59/59 60/60/60 54/54/54
f 61/61/61 56/56/56 57/57/57
f 62/62/62 61/61/61 57/57/57
f 63/63/63 58/58/58 56/56/56
f 61/61/61 63/63/63 56/56/56
f 64/64/64 59/59/59 58/58/58
f 63/63/63 64/64/64 58/58/58
f 65/65/65 60/60/60 59/59/59
f 64/64/64 65/65/65 59/59/59
f 66/66/66 61/61/61 62/62/62
f 67/67/67 66/66/66 62/62/62
f 68/68/68 63/63/63 61/61/61
f 66/66/66 68/68/68 61/61/61
f 69/69/69 64/64/64 63/63/63
f 68/68/68 69/69/69 63/63/63
f 70/70/70 65/65/65 64/64/64
f 69/69/69 70/70/70 64/64/64
f 71/71/71 66/66/66 67/67/67
f 72/72/72 71/71/71 67/67/67
f 73/73/73 68/68/68 66/66/66
f 71/71/71 73/73/73 66/66/66
f 74/74/74 69/69/69 68/68/68
f 73/73/73 74/74/74 68/68/68
f 75/75/75 70/70/70 69/69/69
f 74/74/74 75/75/75 69/69/69
f 76/76/76 71/71/71 72/72/72
f 77/77/77 76/76/76 72/72/72
f 78/78/78 73/73/73 71/71/71
f 76/76/76 78/78/78 71/71/71
f 79/79/79 74/74/74 73/73/73
f 78/78/78 79/79/79 73/73/73
f 80/80/80 75/75/75 74/74/74
f 79/79/79 80/80/80 74/74/74
f 81/81/81 76/76/76 77/77/77
f 82/82/82 81/81/81 77/77/77
f 83/83/83 78/78/78 76/76/76
f 81/81/81 83/83/83 76/76/76
f 84/84/84 79/79/79 78/78/78
f 83/83/83 84/84/84 78/78/78
f 85/85/85 80/80/80 79/79/79
f 84/84/84 85/85/85 79/79/79
f 86/86/86 81/81/81 82/82/82
f 87/87/87 86/86/86 82/82/82
f 88/88/88 83/83/83 81/81/81
f 86/86/86 88/88/88 81/81/81
f 89/89/89 84/84/84 83/83/83
f 88/88/88 89/89/89 83/83/83
f 90/90/90 85/85/85 84/84/84
f 89/89/89 90/90/90 84/84/84
f 91/91/91 86/86/86 87/87/87
f 92/92/92 91/91/91 87/87/87
f 93/93/93 88/88/88 86/86/86
f 91/91/91 93/93/93 86/86/86
f 94/94/94 89/89/89 88/88/88
f 93/93/93 94/94/94 88/88/88
f 95/95/95 90/90/90 89/89/89
f 94/94/94 95/95/95 89/89/89
f 96/96/96 91/91/91 92/92/92
f 97/97/97 96/96/96 92/92/92
f 98/98/98 93/93/93 91/91/91
f 96/96/96 98/98/98 91/91/91
f 99/99/99 94/94/94 93/93/93
f 98/98/98 99/99/99 93/93/93
f 100/100/100 95/95/95 94/94/94
f 99/99/99 100/100/100 94/94/94
f 101/101/101 96/96/96 97/97/97
f 102/102/102 101/101/101 97/97/97
f 103/103/103 98/98/98 96/96/96
f 101/101/101 103/103/103 96/96/96
f 104/104/104 99/99/99 98/98/98
f 103/103/103 104/104/104 98/98/98
f 105/105/105 100/100/100 99/99/99
f 104/104/104 105/105/105 99/99/99
